# xmcd CD database file
# Copyright (C) 1997 Ti Kan
#
# Track frame offsets:
#  187
#  13842
#  24630
#  37147
#  50675
#  61305
#  72400
#  83500
#  95057
#  107722
#  120875
#  131695
#  141207
#  152457
#  163932
#  172832
#  182202
#  191617
#
# Disc length: 2669 seconds
#
# Revision: 1
# Processed by: cddbd v1.4b41PL1 Copyright (c) Steve Scherf et al.
# Submitted via: CDWizzard Release:4.32
#
DISCID=f70a6b12
DTITLE=Webb Pierce - Webb Pierce - King of the Honky-Tonk
DYEAR=1900
DGENRE=
TTITLE0=Wondering
TTITLE1=I Just Can't Be True
TTITLE2=Back Street Affair
TTITLE3=Broken Engagement
TTITLE4=It's Been So Long
TTITLE5=There Stands the Glass
TTITLE6=I'm Walking the Dog
TTITLE7=Slowly
TTITLE8=Even Tho'
TTITLE9=Sparkling Brown Eyes
TTITLE10=More and More
TTITLE11=In the Jailhouse Now
TTITLE12=I Don't Care
TTITLE13=Why Baby Why
TTITLE14=I'm Tired
TTITLE15=Honky Tonk Song
TTITLE16=Tupelo County Jail
TTITLE17=I Ain't Never
EXTD=
EXTT0=Webb Pierce
EXTT1=Webb Pierce
EXTT2=Webb Pierce
EXTT3=Webb Pierce
EXTT4=Webb Pierce
EXTT5=Webb Pierce
EXTT6=Webb Pierce
EXTT7=Webb Pierce
EXTT8=Willie Nelson
EXTT9=Webb Pierce
EXTT10=Webb Pierce
EXTT11=Webb Pierce
EXTT12=Webb Pierce
EXTT13=Webb Pierce and Red Sovine
EXTT14=Webb Pierce
EXTT15=Webb Pierce
EXTT16=Webb Pierce and the Jordanaires
EXTT17=Webb Pierce, Mel Tillis, Don Winters and the Jordanaires
PLAYORDER=
